{"title":"Avatar DVDScr xvid - IMAGiNE","uid":5334155,"size":2208559104,"categoryP":"video","categoryS":"movies","magnet":"?xt=urn:btih:4137a3f17bbb21dafa4f135bd841fa0a7783c60b&amp;dn=Avatar+DVDScr+xvid+-+IMAGiNE&amp;tr=udp%3A%2F%2Ftracker.openbittorrent.com%3A80&amp;tr=udp%3A%2F%2Fopen.demonii.com%3A1337&amp;tr=udp%3A%2F%2Ftracker.coppersurfer.tk%3A6969&amp;tr=udp%3A%2F%2Fexodus.desync.com%3A6969","seeders":0,"leechers":1,"uploader":"raymondhome","files":-1,"time":1265270308,"description":"Love for All and Sharing is the first step to solving all the problems of humanity.\n\nWebsites I want to share.\n\n    &lt;a href=&quot;\nhttp://www.shareintl.org/&quot; rel=&quot;nofollow&quot; target=&quot;_NEW&quot;&gt;\nhttp://www.shareintl.org/&lt;/a&gt;\n\n    &lt;a href=&quot;\nhttp://www.lightmiddleway.com&quot; rel=&quot;nofollow&quot; target=&quot;_NEW&quot;&gt;\nhttp://www.lightmiddleway.com&lt;/a&gt;\n\n\nThank you very much\n\nNo credit for me...credit to EVERYONE for sharing\n &lt;a href=&quot;\nhttp://thepiratebay.se/user/raymondhome/&quot; rel=&quot;nofollow&quot; target=&quot;_NEW&quot;&gt;\nhttp://thepiratebay.se/user/raymondhome/&lt;/a&gt;\n\nRuntime...........:162 mn\nLanguage..........:ENGLISH\nSubtitles.........:Harcoded Where Needed\n\nVideo\nID : 0\nFormat : MPEG-4 Visual\nFormat profile : Advanced Simple@L5\nFormat settings, BVOP : Yes\nFormat settings, QPel : No\nFormat settings, GMC : No warppoints\nFormat settings, Matrix : Default (MPEG)\nCodec ID : XVID\nCodec ID/Hint : XviD\nDuration : 2h 36mn\nBit rate : 1 672 Kbps\nWidth : 656 pixels\nHeight : 368 pixels\nDisplay aspect ratio : 16:9\nFrame rate : 23.976 fps\nResolution : 8 bits\nColorimetry : 4:2:0\nScan type : Progressive\nBits/(Pixel*Frame) : 0.289\nStream size : 1.83 GiB (89%)\nWriting library : XviD 1.2.1 (UTC 2008-12-04)\nAudio\nID : 1\nFormat : AC-3\nFormat/Info : Audio Coding 3\nCodec ID : 2000\nDuration : 2h 36mn\nBit rate mode : Constant\nBit rate : 192 Kbps\nChannel(s) : 2 channels\nChannel positions : L R\nSampling rate : 48.0 KHz\nStream size : 216 MiB (10%)\nAlignment : Split accross interleaves\nInterleave, duration : 42 ms (1.00 video frame)\nInterleave, preload duration : 500 ms\n\nIMAGiNE NOTES:\n\nIMAGiNE bringing you another release.....\n\nWe found the dvd scr. we did our normal stuff to it saturation,contrast and brightness. but it was very little as the original file was decent.\n\ncredit IMAGiNE &amp; Shedevil BIG TIME &amp; to all the people who made it possible for me to share this with everyone\n\n*****help what we can with haiti...the world is ONE big family*****","torrent":{"xt":"urn:btih:4137a3f17bbb21dafa4f135bd841fa0a7783c60b","amp;dn":"Avatar+DVDScr+xvid+-+IMAGiNE","amp;tr":["udp%3A%2F%2Ftracker.openbittorrent.com%3A80","udp%3A%2F%2Fopen.demonii.com%3A1337","udp%3A%2F%2Ftracker.coppersurfer.tk%3A6969","udp%3A%2F%2Fexodus.desync.com%3A6969"],"infoHash":"4137a3f17bbb21dafa4f135bd841fa0a7783c60b","infoHashBuffer":{"type":"Buffer","data":[65,55,163,241,123,187,33,218,250,79,19,91,216,65,250,10,119,131,198,11]},"announce":[],"urlList":[]}}